<svg width="13" height="14" viewBox="0 0 13 14" fill="none" xmlns="http://www.w3.org/2000/svg">
<g id="Icon" clip-path="url(#clip0_0_251)">
<path id="Vector" d="M2.83655 4.88281V12.625H0.258423V4.88281H2.83655ZM3.00061 2.49219C3.00582 2.8724 2.87431 3.1901 2.60608 3.44531C2.33785 3.70052 1.98499 3.82812 1.54749 3.82812H1.53186C1.10478 3.82812 0.761027 3.70052 0.50061 3.44531C0.240194 3.1901 0.109985 2.8724 0.109985 2.49219C0.109985 2.10677 0.2441 1.78776 0.512329 1.53516C0.780558 1.28255 1.13082 1.15625 1.56311 1.15625C1.9954 1.15625 2.34176 1.28255 2.60217 1.53516C2.86259 1.78776 2.9954 2.10677 3.00061 2.49219ZM12.11 8.1875V12.625H9.53967V8.48438C9.53967 7.9375 9.4342 7.50911 9.22327 7.19922C9.01233 6.88932 8.6829 6.73438 8.23499 6.73438C7.90686 6.73438 7.63212 6.82422 7.41077 7.00391C7.18941 7.18359 7.02405 7.40625 6.91467 7.67188C6.85738 7.82812 6.82874 8.03906 6.82874 8.30469V12.625H4.25842C4.26884 10.5469 4.27405 8.86198 4.27405 7.57031C4.27405 6.27865 4.27144 5.50781 4.26624 5.25781L4.25842 4.88281H6.82874V6.00781H6.81311C6.91728 5.84115 7.02405 5.69531 7.13342 5.57031C7.2428 5.44531 7.38993 5.3099 7.57483 5.16406C7.75973 5.01823 7.98629 4.90495 8.25452 4.82422C8.52275 4.74349 8.82092 4.70312 9.14905 4.70312C10.0397 4.70312 10.7558 4.9987 11.2975 5.58984C11.8392 6.18099 12.11 7.04688 12.11 8.1875Z" fill="white"/>
</g>
<defs>
<clipPath id="clip0_0_251">
<rect width="12" height="14" fill="white" transform="matrix(1 0 0 -1 0.109985 14)"/>
</clipPath>
</defs>
</svg>
