<svg width="12" height="14" viewBox="0 0 12 14" fill="none" xmlns="http://www.w3.org/2000/svg">
<g id="Icon">
<path id="Vector" d="M8 11.7188C7.78125 10.4635 7.41667 9.16667 6.90625 7.82812H6.89062L6.875 7.83594C6.79167 7.86719 6.67969 7.91016 6.53906 7.96484C6.39844 8.01953 6.13542 8.14714 5.75 8.34766C5.36458 8.54818 5.00781 8.76172 4.67969 8.98828C4.35156 9.21484 4.01042 9.51302 3.65625 9.88281C3.30208 10.2526 3.03385 10.638 2.85156 11.0391L2.73438 10.9531C3.69271 11.7344 4.78125 12.125 6 12.125C6.6875 12.125 7.35417 11.9896 8 11.7188ZM6.55469 6.97656C6.44531 6.72135 6.30729 6.43229 6.14062 6.10938C4.52083 6.59375 2.76823 6.83594 0.882812 6.83594C0.877604 6.8724 0.875 6.92708 0.875 7C0.875 7.64583 0.989583 8.26172 1.21875 8.84766C1.44792 9.43359 1.77083 9.95833 2.1875 10.4219C2.44792 9.95833 2.76953 9.52474 3.15234 9.12109C3.53516 8.71745 3.90625 8.39323 4.26562 8.14844C4.625 7.90365 4.96484 7.69271 5.28516 7.51562C5.60547 7.33854 5.86458 7.21354 6.0625 7.14062L6.35156 7.03906C6.3724 7.03385 6.40625 7.02474 6.45312 7.01172C6.5 6.9987 6.53385 6.98698 6.55469 6.97656ZM5.71875 5.32031C5.09375 4.21094 4.45833 3.22656 3.8125 2.36719C3.09375 2.70573 2.48438 3.1901 1.98438 3.82031C1.48438 4.45052 1.15104 5.15885 0.984375 5.94531C2.55729 5.94531 4.13542 5.73698 5.71875 5.32031ZM11.0625 7.8125C9.96875 7.5 8.90365 7.42448 7.86719 7.58594C8.32031 8.83073 8.65365 10.0521 8.86719 11.25C9.44531 10.8594 9.92708 10.3659 10.3125 9.76953C10.6979 9.17318 10.9479 8.52083 11.0625 7.8125ZM9.38281 3.15625C8.41927 2.30208 7.29167 1.875 6 1.875C5.60417 1.875 5.20052 1.92448 4.78906 2.02344C5.47135 2.90885 6.11198 3.90365 6.71094 5.00781C7.07031 4.8724 7.40885 4.71484 7.72656 4.53516C8.04427 4.35547 8.29557 4.19531 8.48047 4.05469C8.66536 3.91406 8.83594 3.76562 8.99219 3.60938C9.14844 3.45312 9.24609 3.34766 9.28516 3.29297C9.32422 3.23828 9.35677 3.19271 9.38281 3.15625ZM11.125 6.94531C11.1094 5.73698 10.7214 4.66927 9.96094 3.74219L9.95312 3.75C9.90625 3.8125 9.85677 3.8763 9.80469 3.94141C9.7526 4.00651 9.63932 4.1224 9.46484 4.28906C9.29036 4.45573 9.10547 4.61328 8.91016 4.76172C8.71484 4.91016 8.45443 5.07943 8.12891 5.26953C7.80339 5.45964 7.46094 5.6276 7.10156 5.77344C7.23177 6.04948 7.34635 6.29688 7.44531 6.51562C7.45573 6.54688 7.47266 6.59245 7.49609 6.65234C7.51953 6.71224 7.53906 6.75521 7.55469 6.78125C7.74219 6.75521 7.9362 6.73698 8.13672 6.72656C8.33724 6.71615 8.52865 6.71094 8.71094 6.71094C8.89323 6.71094 9.07292 6.71484 9.25 6.72266C9.42708 6.73047 9.59375 6.74089 9.75 6.75391C9.90625 6.76693 10.0534 6.78125 10.1914 6.79688C10.3294 6.8125 10.4544 6.82943 10.5664 6.84766C10.6784 6.86589 10.7734 6.88151 10.8516 6.89453C10.9297 6.90755 10.9948 6.91927 11.0469 6.92969L11.125 6.94531ZM11.1953 3.98828C11.1953 3.98828 11.3294 4.2181 11.5977 4.67773C11.8659 5.13737 12 5.91146 12 7C12 8.08854 11.7318 9.09245 11.1953 10.0117C10.6589 10.931 9.93099 11.6589 9.01172 12.1953C8.09245 12.7318 7.08854 13 6 13C4.91146 13 3.90755 12.7318 2.98828 12.1953C2.06901 11.6589 1.34115 10.931 0.804688 10.0117C0.268229 9.09245 0 8.08854 0 7C0 5.91146 0.268229 4.90755 0.804688 3.98828C1.34115 3.06901 2.06901 2.34115 2.98828 1.80469C3.90755 1.26823 4.91146 1 6 1C7.08854 1 8.09245 1.26823 9.01172 1.80469C9.93099 2.34115 10.6589 3.06901 11.1953 3.98828Z" fill="white"/>
</g>
</svg>
