<svg width="14" height="14" viewBox="0 0 14 14" fill="none" xmlns="http://www.w3.org/2000/svg">
<g id="Icon" clip-path="url(#clip0_0_248)">
<path id="Vector" d="M6.46219 6.21875C6.46219 6.40625 6.54552 6.58984 6.71219 6.76953C6.87886 6.94922 7.08068 7.1263 7.31766 7.30078C7.55464 7.47526 7.79031 7.66667 8.02469 7.875C8.25906 8.08333 8.45958 8.35417 8.62625 8.6875C8.79292 9.02083 8.87625 9.39062 8.87625 9.79688C8.87625 10.2656 8.75125 10.7161 8.50125 11.1484C8.12625 11.7839 7.57677 12.2513 6.85281 12.5508C6.12886 12.8503 5.35281 13 4.52469 13C3.83719 13 3.19526 12.8919 2.59891 12.6758C2.00255 12.4596 1.55594 12.1016 1.25906 11.6016C1.06636 11.2891 0.970001 10.9479 0.970001 10.5781C0.970001 10.1562 1.08589 9.76562 1.31766 9.40625C1.54943 9.04688 1.85802 8.7474 2.24344 8.50781C2.92573 8.08073 3.97781 7.82031 5.39969 7.72656C5.23302 7.50781 5.10932 7.3151 5.02859 7.14844C4.94787 6.98177 4.9075 6.79167 4.9075 6.57812C4.9075 6.39062 4.96219 6.16927 5.07156 5.91406C4.83198 5.9349 4.6549 5.94531 4.54031 5.94531C3.76948 5.94531 3.11974 5.69401 2.59109 5.19141C2.06245 4.6888 1.79813 4.05208 1.79813 3.28125C1.79813 2.85417 1.89188 2.4401 2.07938 2.03906C2.26688 1.63802 2.52469 1.29688 2.85281 1.01562C3.25386 0.671875 3.72912 0.416667 4.27859 0.25C4.82807 0.083333 5.39448 0 5.97781 0H9.24344L8.16531 0.6875H7.14188C7.52729 1.01562 7.81896 1.36198 8.01688 1.72656C8.21479 2.09115 8.31375 2.50781 8.31375 2.97656C8.31375 3.35156 8.24995 3.6888 8.12234 3.98828C7.99474 4.28776 7.84109 4.52995 7.66141 4.71484C7.48172 4.89974 7.30073 5.06901 7.11844 5.22266C6.93615 5.3763 6.7812 5.53646 6.65359 5.70312C6.52599 5.86979 6.46219 6.04167 6.46219 6.21875ZM5.32156 5.46875C5.51948 5.46875 5.72261 5.42578 5.93094 5.33984C6.13927 5.25391 6.31115 5.14062 6.44656 5C6.72261 4.70312 6.86063 4.28906 6.86063 3.75781C6.86063 3.45573 6.81636 3.13021 6.72781 2.78125C6.63927 2.43229 6.51297 2.09505 6.34891 1.76953C6.18484 1.44401 5.96479 1.17448 5.68875 0.960938C5.41271 0.747396 5.10802 0.640625 4.77469 0.640625C4.55594 0.640625 4.34109 0.691406 4.13016 0.792969C3.91922 0.894531 3.74865 1.03125 3.61844 1.20312C3.37365 1.51042 3.25125 1.92708 3.25125 2.45312C3.25125 2.69271 3.27729 2.94661 3.32938 3.21484C3.38146 3.48307 3.46349 3.7513 3.57547 4.01953C3.68745 4.28776 3.82287 4.52865 3.98172 4.74219C4.14057 4.95573 4.33589 5.13021 4.56766 5.26562C4.79943 5.40104 5.05073 5.46875 5.32156 5.46875ZM5.33719 12.2891C5.63927 12.2891 5.92964 12.2552 6.20828 12.1875C6.48693 12.1198 6.74474 12.0182 6.98172 11.8828C7.2187 11.7474 7.4088 11.5573 7.55203 11.3125C7.69526 11.0677 7.76688 10.7839 7.76688 10.4609C7.76688 10.3307 7.74865 10.2031 7.71219 10.0781C7.67573 9.95312 7.63797 9.84375 7.59891 9.75C7.55984 9.65625 7.48953 9.54818 7.38797 9.42578C7.28641 9.30339 7.20958 9.21224 7.1575 9.15234C7.10542 9.09245 7.00516 9.0026 6.85672 8.88281C6.70828 8.76302 6.61323 8.6875 6.57156 8.65625C6.5299 8.625 6.42182 8.54688 6.24734 8.42188C6.07287 8.29688 5.97781 8.22917 5.96219 8.21875C5.87886 8.20833 5.75386 8.20312 5.58719 8.20312C5.31115 8.20312 5.03771 8.22135 4.76688 8.25781C4.49604 8.29427 4.21609 8.35938 3.92703 8.45312C3.63797 8.54688 3.38537 8.66667 3.16922 8.8125C2.95307 8.95833 2.77469 9.15234 2.63406 9.39453C2.49344 9.63672 2.42313 9.91146 2.42313 10.2188C2.42313 10.5833 2.51427 10.9049 2.69656 11.1836C2.87886 11.4622 3.11714 11.6784 3.41141 11.832C3.70568 11.9857 4.01557 12.1003 4.34109 12.1758C4.66662 12.2513 4.99865 12.2891 5.33719 12.2891ZM11.6653 5.44531H13.3294V6.28906H11.6653V8H10.845V6.28906H9.18875V5.44531H10.845V3.75H11.6653V5.44531Z" fill="white"/>
</g>
<defs>
<clipPath id="clip0_0_248">
<rect width="13" height="14" fill="white" transform="matrix(1 0 0 -1 0.720001 14)"/>
</clipPath>
</defs>
</svg>
