<svg width="14" height="14" viewBox="0 0 14 14" fill="none" xmlns="http://www.w3.org/2000/svg">
<g id="Icon" clip-path="url(#clip0_0_242)">
<path id="Vector" d="M13.5963 3.1875C13.2473 3.69792 12.8254 4.13281 12.3306 4.49219C12.3358 4.5651 12.3384 4.67448 12.3384 4.82031C12.3384 5.4974 12.2395 6.17318 12.0416 6.84766C11.8436 7.52214 11.5429 8.16927 11.1392 8.78906C10.7356 9.40885 10.2551 9.95703 9.69781 10.4336C9.14052 10.9102 8.46865 11.2904 7.68219 11.5742C6.89573 11.8581 6.05459 12 5.15875 12C3.74729 12 2.45563 11.6224 1.28375 10.8672C1.46604 10.888 1.66917 10.8984 1.89313 10.8984C3.065 10.8984 4.10927 10.5391 5.02594 9.82031C4.47906 9.8099 3.98948 9.64193 3.55719 9.31641C3.1249 8.99089 2.82802 8.57552 2.66656 8.07031C2.83844 8.09635 2.99729 8.10938 3.14313 8.10938C3.36709 8.10938 3.58844 8.08073 3.80719 8.02344C3.22386 7.90365 2.74078 7.61328 2.35797 7.15234C1.97516 6.69141 1.78375 6.15625 1.78375 5.54688V5.51562C2.13792 5.71354 2.51813 5.82031 2.92438 5.83594C2.58063 5.60677 2.30719 5.30729 2.10406 4.9375C1.90094 4.56771 1.79938 4.16667 1.79938 3.73438C1.79938 3.27604 1.91396 2.85156 2.14313 2.46094C2.77334 3.23698 3.54026 3.85807 4.44391 4.32422C5.34755 4.79036 6.315 5.04948 7.34625 5.10156C7.30459 4.90365 7.28375 4.71094 7.28375 4.52344C7.28375 3.82552 7.52985 3.23047 8.02203 2.73828C8.51422 2.24609 9.10927 2 9.80719 2C10.5364 2 11.1509 2.26562 11.6509 2.79688C12.2186 2.6875 12.7525 2.48438 13.2525 2.1875C13.0598 2.78646 12.69 3.25 12.1431 3.57812C12.6275 3.52604 13.1119 3.39583 13.5963 3.1875Z" fill="white"/>
</g>
<defs>
<clipPath id="clip0_0_242">
<rect width="13" height="14" fill="white" transform="matrix(1 0 0 -1 0.940002 14)"/>
</clipPath>
</defs>
</svg>
