<svg width="14" height="14" viewBox="0 0 14 14" fill="none" xmlns="http://www.w3.org/2000/svg">
<g id="Icon">
<path id="Vector" d="M12.8359 3.89062C12.9818 4.03646 13.0547 4.21354 13.0547 4.42188C13.0547 4.63021 12.9818 4.80729 12.8359 4.95312L7.17969 10.6094L6.11719 11.6719C5.97135 11.8177 5.79427 11.8906 5.58594 11.8906C5.3776 11.8906 5.20052 11.8177 5.05469 11.6719L3.99219 10.6094L1.16406 7.78125C1.01823 7.63542 0.945312 7.45833 0.945312 7.25C0.945312 7.04167 1.01823 6.86458 1.16406 6.71875L2.22656 5.65625C2.3724 5.51042 2.54948 5.4375 2.75781 5.4375C2.96615 5.4375 3.14323 5.51042 3.28906 5.65625L5.58594 7.96094L10.7109 2.82812C10.8568 2.68229 11.0339 2.60938 11.2422 2.60938C11.4505 2.60938 11.6276 2.68229 11.7734 2.82812L12.8359 3.89062Z" fill="#79B519"/>
</g>
</svg>
